<?xml version="1.0" standalone="no"?>
<!DOCTYPE svg PUBLIC "-//W3C//DTD SVG 20010904//EN"
 "http://www.w3.org/TR/2001/REC-SVG-20010904/DTD/svg10.dtd">
<svg version="1.0" xmlns="http://www.w3.org/2000/svg"
 width="55.000000pt" height="55.000000pt" viewBox="0 0 55.000000 55.000000"
 preserveAspectRatio="xMidYMid meet">

<g transform="translate(0.000000,55.000000) scale(0.100000,-0.100000)"
fill="#000000" stroke="none">
<path d="M11 452 c2 -5 42 -89 88 -186 119 -249 124 -249 251 5 50 98 90 181
90 185 0 3 -15 4 -32 2 -32 -3 -36 -9 -104 -146 -40 -79 -76 -143 -80 -144 -5
0 -39 65 -76 144 l-66 143 -37 3 c-21 2 -36 -1 -34 -6z"/>
</g>
</svg>
